<?xml version='1.0' encoding='utf-8'?>
<svg xmlns="http://www.w3.org/2000/svg" version="1.1" id="Layer_1" x="0px" y="0px" viewBox="0 0 1024 768" style="enable-background:new 0 0 1024 768;"> <style type="text/css"> .st0{fill:url(#SVGID_1_);} .st1{fill:none;stroke:#FFFFFF;stroke-miterlimit:10;} .st2{fill:#FFFFFF;stroke:#FFFFFF;stroke-miterlimit:10;} .st3{fill:#FFA73E;stroke:#FFA73E;stroke-miterlimit:10;} </style> <g> <linearGradient id="SVGID_1_" gradientUnits="userSpaceOnUse" x1="0" y1="384" x2="1024" y2="384"> <stop offset="0" style="stop-color:#EE9200"/> <stop offset="0.3073" style="stop-color:#FF5D3E"/> <stop offset="0.4132" style="stop-color:#FF5B42"/> <stop offset="0.527" style="stop-color:#FF554F"/> <stop offset="0.6366" style="stop-color:#FF4B63"/> <stop offset="0.7099" style="stop-color:#FA4464"/> <stop offset="0.8191" style="stop-color:#EC2F69"/> <stop offset="0.9501" style="stop-color:#D60F6F"/> <stop offset="1" style="stop-color:#CC0072"/> </linearGradient> <rect class="st0" width="1024" height="768"/> </g> <g> <g> <polygon class="st1" points="-0.5,91.5 156.5,-0.5 -0.5,-0.5 "/> <polygon class="st1" points="189.5,71.5 156.5,-0.5 275.5,-0.5 "/> <polygon class="st1" points="48.5,62.8 189.5,71.5 156.5,-0.5 "/> <polygon class="st1" points="275.5,-0.5 287.5,147.5 189.5,71.5 "/> <polygon class="st1" points="336.5,-0.5 287.5,147.5 275.5,-0.5 "/> <polygon class="st1" points="441.5,83.5 336.5,-0.5 534.5,-0.5 "/> <polygon class="st1" points="287.5,147.5 441.5,83.5 336.5,-0.5 "/> <polygon class="st1" points="643.5,-0.5 632.5,147.5 534.5,-0.5 "/> <polygon class="st1" points="441.5,83.5 577.9,65.1 534.5,-0.5 "/> <polygon class="st1" points="632.5,147.5 714.5,91.5 643.5,-0.5 "/> <polygon class="st1" points="779.5,-0.5 714.5,91.5 643.5,-0.5 "/> <polygon class="st1" points="861.5,147.5 714.5,91.5 779.5,-0.5 "/> <polygon class="st1" points="1023.5,-0.5 822.5,77.1 779.5,-0.5 "/> <polygon class="st1" points="861.5,147.5 939.4,32 822.5,77.5 "/> <polygon class="st1" points="1023.5,-0.5 1023.5,127.5 939.5,31.5 "/> <polygon class="st1" points="861.5,147.5 1023.5,127.5 939.5,31.5 "/> </g> <circle class="st2" cx="49" cy="62" r="7.5"/> <circle class="st2" cx="190" cy="71" r="7.5"/> <circle class="st2" cx="288" cy="147" r="7.5"/> <circle class="st2" cx="442" cy="83" r="7.5"/> <circle class="st2" cx="575" cy="63" r="7.5"/> <circle class="st2" cx="633" cy="147" r="7.5"/> <circle class="st2" cx="715" cy="91" r="7.5"/> <circle class="st2" cx="939" cy="32" r="7.5"/> <circle class="st2" cx="864" cy="147" r="7.5"/> </g> <g> <circle class="st3" cx="201" cy="617" r="7.5"/> <circle class="st2" cx="201" cy="617" r="7.5"/> <circle class="st2" cx="286" cy="706" r="7.5"/> <circle class="st2" cx="32" cy="612" r="7.5"/> <circle class="st2" cx="266" cy="479" r="7.5"/> <circle class="st2" cx="374" cy="584" r="7.5"/> <circle class="st2" cx="434" cy="617" r="7.5"/> <circle class="st2" cx="525" cy="491" r="7.5"/> <circle class="st2" cx="638" cy="551" r="7.5"/> <circle class="st2" cx="758" cy="533" r="7.5"/> <circle class="st2" cx="703" cy="451" r="7.5"/> <circle class="st2" cx="907" cy="492" r="7.5"/> <circle class="st2" cx="926" cy="634" r="7.5"/> <circle class="st3" cx="892" cy="701" r="7.5"/> <circle class="st2" cx="892" cy="701" r="7.5"/> <circle class="st2" cx="716" cy="673" r="7.5"/> <circle class="st2" cx="808" cy="617" r="7.5"/> <g> <polygon class="st1" points="1024,767.5 926,633.9 855.6,768 "/> <polygon class="st1" points="808.1,617.5 890.8,701 926,633.9 "/> <polygon class="st1" points="1023.5,526.5 926,633.9 1024,767.5 "/> <polygon class="st1" points="686.7,767.5 808.1,617.5 856.1,767.5 "/> <polygon class="st1" points="891.1,700.7 808.1,617.5 856.1,767.5 "/> <polygon class="st1" points="758.1,533.2 808.1,617.5 687.2,767.5 "/> <polygon class="st1" points="926,633.9 758.1,533.2 808.1,617.5 "/> <polygon class="st1" points="715.7,673.4 473.8,768 687.2,767.5 "/> <polygon class="st1" points="638.2,552.7 716.2,673 758.1,533.2 "/> <polygon class="st1" points="474.3,767.5 478.1,762.5 638.2,552.7 716.2,673 "/> <polygon class="st1" points="434.3,617.5 638.2,552.7 474.3,767.5 "/> <polygon class="st1" points="374.3,583.6 434.3,617.5 474.3,767.5 "/> <polygon class="st1" points="286.4,705.8 474.3,767.5 374.3,583.6 "/> <polygon class="st1" points="248.9,768 286.4,705.8 474.3,767.5 "/> <polygon class="st1" points="201.4,617.5 286.4,705.8 249.4,767.5 "/> <polygon class="st1" points="138.9,767.5 201.4,617.5 249.4,767.5 "/> <polygon class="st1" points="32.5,610.3 139.4,767.5 0.5,767.5 "/> <polygon class="st1" points="0,510.1 32.5,610.3 0.5,767.5 "/> <polygon class="st1" points="201.4,617.5 32.5,610.3 139.4,767.5 "/> <polygon class="st1" points="1024,526 1023.5,395 907.1,491.1 "/> <polygon class="st1" points="758.1,533.2 907.1,491.1 926,633.9 "/> <polygon class="st1" points="1024,526 926,633.9 907.1,491.1 "/> <polygon class="st1" points="703.2,451 907.1,491.1 758.1,533.2 "/> <polygon class="st1" points="525.2,491.1 758.1,533.2 703.2,451 "/> <polygon class="st1" points="638.2,552.7 525.2,491.1 758.1,533.2 "/> <polygon class="st1" points="434.3,617.5 525.2,491.1 638.2,552.7 "/> <polygon class="st1" points="374.3,583.6 266.4,477.7 286.4,705.8 "/> <polygon class="st1" points="201.4,617.5 266.4,477.7 286.4,705.8 "/> <polygon class="st1" points="0.5,509.6 201.4,617.5 32.5,610.3 "/> <polygon class="st1" points="525.2,491.1 374.3,583.6 434.3,617.5 "/> </g> </g> </svg>