<svg xmlns="http://www.w3.org/2000/svg" viewBox="0 0 495.95 458.4"><defs><style>.cls-1{stroke:#000;stroke-miterlimit:10;fill-rule:evenodd;}.cls-2{fill:#c3ddf4;}.cls-3{fill:#01589f;}.cls-4{fill:#a2b4dd;}.cls-5{fill:#669ad3;}.cls-6{font-size:175.3px;fill:#fff;font-family:OCRAStd, OCR A Std;}</style></defs><title>C++</title><g id="C"><path class="cls-1" d="M266.79-107" transform="translate(-0.28 0.4)"/><path class="cls-2" d="M318.16,17.53c-11,19.24-20.9,38.49-30.55,57.74-7.06,14.08-14.09,28.16-21.36,42.23a116.66,116.66,0,0,0-70.73-.92c17.55-21.75,34-46.6,34-79.66V-.4A227.42,227.42,0,0,1,318.16,17.53Z" transform="translate(-0.28 0.4)"/><path class="cls-3" d="M146.36,311.49c-48.24-.85-104.88,2.05-137-19.28C36.89,387.91,124.92,458,229.48,458V416.31c-8.35-24.33-10.6-51.27-16.82-71.59A116.78,116.78,0,0,1,146.36,311.49Z" transform="translate(-0.28 0.4)"/><path class="cls-4" d="M69.58,111.54c-13,25.92,29.18,47.9,52.28,70.72a117.55,117.55,0,0,1,73.66-65.68c17.55-21.75,34-46.6,34-79.66V-.4c-2.1,0-4.13.26-6.22.32C223.31,74.3,98.5,53.69,69.58,111.54Z" transform="translate(-0.28 0.4)"/><path class="cls-4" d="M112.59,236.1c-34,16.5-84.76-24.76-111.47-23.86-.39,5.49-.84,11-.84,16.56a228.86,228.86,0,0,0,9.09,63.41c32.11,21.33,88.75,18.43,137,19.28A116.8,116.8,0,0,1,112.59,236.1Z" transform="translate(-0.28 0.4)"/><path class="cls-5" d="M112.59,236.1c-.15-2.43-.37-4.83-.37-7.3a116.86,116.86,0,0,1,9.64-46.54c-23.1-22.82-65.24-44.8-52.28-70.72C98.5,53.69,223.31,74.3,223.26-.08,105.14,3.1,9.49,95.48,1.12,212.24,27.83,211.34,78.56,252.6,112.59,236.1Z" transform="translate(-0.28 0.4)"/><path class="cls-5" d="M363.58,414.6a229,229,0,0,1-64.35,32.51c-6.84,2.19-13.83,4-20.94,5.56A229.48,229.48,0,0,1,229.48,458V416.31c-8.35-24.33-10.6-51.27-16.82-71.59a116.71,116.71,0,0,0,16.82,1.35c3,0,6-.23,8.91-.46,21.35,22.94,46.44,47.06,75.27,41.4a52.17,52.17,0,0,0,16.09-6.28l2,2.11C342.24,393.72,352.72,404.43,363.58,414.6Z" transform="translate(-0.28 0.4)"/><path class="cls-4" d="M329.75,380.73A52.17,52.17,0,0,1,313.66,387c-28.83,5.66-53.92-18.46-75.27-41.4a117.16,117.16,0,0,0,35.55-8.51c2.78-1.14,5.59-2.25,8.26-3.6C298.93,348.48,314.37,364.7,329.75,380.73Z" transform="translate(-0.28 0.4)"/></g><g id="_Left" data-name="+ Left"><text class="cls-6" transform="translate(257.48 292.13)">+</text></g><g id="_Right" data-name="+ Right"><text class="cls-6" transform="translate(369.73 292.13)">+</text></g></svg>